<svg xmlns="http://www.w3.org/2000/svg" viewBox="0 0 2500 300"><defs><style>.minerva-base-style{}</style></defs><g transform="translate(0 0) scale(1.4285714285714286) translate(0 0)" style="fill: #656767;"><title>minerva</title><path d="M105,0A105,105,0,1,0,210,105,105.1,105.1,0,0,0,105,0Zm0,207.1A102.1,102.1,0,1,1,207.1,105,102.2,102.2,0,0,1,105,207.1Z"/><path class="minerva-base-style" d="M166.6,97c-1.4-3.1-.5-5.1-.9-7.3s-2.7-7-4.3-10.8c-.7-1.7,3.8-1.3.4-7.6,0-.2,4.7-2,0-5.5a26.4,26.4,0,0,1-6-6.7,1,1,0,0,1,0-1.3c2.7-2.4,2.8-5.8-.1-7.5s-4.5,0-6.7,1.4c-.7.5-1.1.8-1.9.5L145.3,51c2.7-2.6,3.3-5.2,3.1-5.6s-4.6-1.3-10.2,1l-.4-.3c2.3-3.9,1-6.7.9-6.9h-.1A81,81,0,0,1,151,25.9h.1c.2-.3.3-.6-.2-.9l-1-.6A92.4,92.4,0,0,0,12.7,105c0,29.5,15,57.9,39.4,75.6a13.5,13.5,0,0,0,2.8,1.6A1.1,1.1,0,0,0,56,182l.3-.5a1,1,0,0,0,.3-.8c0-.7-.9-1.3-2.1-3a27.7,27.7,0,0,1-4.7-15.1,22.1,22.1,0,0,1,4.5-13.7c3.7,3.9,11.7,10.9,11.5,17.4s-6.9,6.8-5.4,12.2c.9,3.4,3.4,2,3.9,4.6.7,4.4,6.7,7.3,9.3,6.9.7-.1,1.2.4,2.4,1.7s6.2,1.6,8.2,1.2,4.1,1.4,8,.9,6.1-.9,8.2-.9,22.5-.3,36,1.8c2.4.4,3.1-.7,2.1-2.5-4.9-8.6-5.6-15.8-2.8-25,5,.4,12.2,1.7,21.6-4a11,11,0,0,0,5.1-9.5c-.1-2.1-1-4.7-.5-6.7s1.3-2.7,2.1-3.2c3.6-2.6,1-4.6.4-4.8a3.4,3.4,0,0,0,1.1-4.6c-.7-.7-2.7-6.2-.4-7.3s5.3-1.8,8.1-3.1a4.5,4.5,0,0,0,2.4-6C174.2,114.4,166.8,97.4,166.6,97ZM64.7,179.1c-.7.2-2.9.3-2.4-2.7s2.3-2.6,3.3-1.6S64.9,177.6,64.7,179.1Zm87-125.9c1.2-.8,2.5-1.1,3.3-.4,2.6,2.6-2.9,4.1-1.8,6.1a30.7,30.7,0,0,0,7.5,8.4c1.2,1,1.4,3.1-3.3,4.1s-23.6,5.9-33.6,16.5c-12.5,13.2-20.4,30.3-21.5,28s-3.6-2.8-3.2-3.5C117,81.6,145.1,57.3,151.7,53.2Zm8.2,21.7c-1,2.9-9.1,5.5-8.7,3.5s0-2.2.6-2.3,3.5-1.1,7.5-2.1C159.7,73.9,160.2,74.1,159.9,74.9Zm-20.6,5.3c-.2-1.2,8.5-4.1,8.8-3.3s-1.8,6-4.7,7-4.7.9-4.6.4A11,11,0,0,0,139.3,80.2ZM119,125.8c-4,2.5-6.2-2.2-6.8-3.1a3.7,3.7,0,0,1-.5-3.1c.3-1.4.5-3.3-.4-9.3-.4-2.7,5-9.2,6.3-10.4s3.1.6,3.2,2.6c.3,3.6-1.8,5.6-3.9,7.2s-3.1,4.4-2.6,5.1a1.5,1.5,0,0,0,1.9-.9c1.5-3.3,6-4.9,6.7-6.7s.3-4.4.2-5.6.9-1.2,1.6-1.1,1.4,1.4,1.8,2.7c2.9,7.5-4.3,12-5.5,13.8S122.1,123.9,119,125.8Zm6.1-29.1c-2.2,1.5-5.3-.5-4.7-1.4a43.7,43.7,0,0,1,11.5-11c3.4-2.1,3.8-2.3,4-1.1a10.6,10.6,0,0,1-2.6,7.5c-2.3,2.5-4.6,2.3-5.8,2.6S126.7,95.6,125.1,96.7Zm-19.3,25.6c-1-.2-1.4-2.1-1.2-2.9s3.1-5.2,4-6.4a.5.5,0,0,1,.8.3C110,117.4,109.4,123.1,105.8,122.3ZM138,48.2a17.7,17.7,0,0,1,7.5-1.6c.8.1-1.9,4.8-6.6,6.8s-8.5,2.5-8.9,2.3S134.1,49.9,138,48.2ZM54.7,126.5c-1.5-1.7-2.8-2.6-2.9-2.5a22.4,22.4,0,0,0-3.6,8.9A65.4,65.4,0,0,1,40.7,105C39.3,69.6,69,41.1,105.2,41.2a56.8,56.8,0,0,1,22.4,4.6,31.3,31.3,0,0,0-3.7,6.6c0-1.9-.5-3.4-.4-4.6s-5.1.9-9.7,8.3a19.9,19.9,0,0,0-2.2,5.3c-.1-2.8-.7-4.9-.9-4.9a16.1,16.1,0,0,0-8.5,8.8,22.4,22.4,0,0,0-1.1,3.4c-.2-1.9-.7-3.2-.9-3.2s-5.9,2.3-8.6,8.9A15.4,15.4,0,0,0,90.5,79c-.5-2.3-1.4-3.7-1.7-3.4-1.9,2.4-5.7,3.5-7.6,9.6a13.2,13.2,0,0,0-.7,4.2c-.8-2-2-3.2-2.3-3.2s-6.1,5.5-7,10.9a15.8,15.8,0,0,0,.2,5.8c-1.1-1.8-2.5-3-3.1-4.8-.9.5-5.7,5-5.8,10.7a19.7,19.7,0,0,0,.7,6.1c-1.6-2.9-3.8-4.2-4.1-4.1s-4,4.1-4.8,11.1A11.8,11.8,0,0,0,54.7,126.5Zm74.1-79.7c2.8-3.4,7.6-6.1,8.2-5.8s-.8,5.6-3.9,8.6-8.1,6.2-8.6,6.1S126.2,49.8,128.8,46.8Zm-9.3,13a21,21,0,0,0-5.6,6.4c-.5.9-1.9-5,1.7-10.6,2.2-3.5,6.6-6.6,6.5-6.2S124.2,56,119.5,59.8Zm-10.1,7.5c-3.4,5.1-3.6,3.3-7.3,8.3-.2.2-.2-6.5,1.1-9.4,2.1-4.7,5.7-7.4,6.2-7.5S111.3,64.5,109.4,67.3ZM98.3,77.4c-1.7,3-3.3,2.3-6.2,6.7-.3.4-1.1-3.6.7-9.1a12.6,12.6,0,0,1,5.9-6.9C99.3,68,100.4,73.8,98.3,77.4ZM88,88.1c-1.8,3.9-2.9,4-5,6.4-.3.4-1.8-3.7-.4-8.8s4-5.6,5.3-7S89.9,84,88,88.1Zm-8.4,6.6a10.3,10.3,0,0,1-.4,3c-1.3,4.3-3.9,6.2-5.3,8.1a15.7,15.7,0,0,1-1.6-5.8,15.2,15.2,0,0,1,5.2-11.2C78.3,88.8,79.6,92,79.6,94.7Zm-8.5,12.8A14.9,14.9,0,0,1,66,118.3a17.7,17.7,0,0,1-2.2-7.6c-.2-6.3,2.4-8.5,3.6-9.7C67.9,102.8,71.1,104.2,71.1,107.5ZM59,113.8c1.8.9,3.9,3.4,4.1,8.2s-3.2,8.7-4.6,9.4c-.9-3.7-2.6-4.4-2.6-8A18,18,0,0,1,59,113.8Zm7.3,12.5c4.6-2,9.6-1.7,9.8-1.5s-1.5,5.9-5.9,8.2-9.5,2.7-10,2.1S61.7,128.3,66.3,126.3Zm-.4-3.4c.3-1.5,3-6.5,7.1-8.3h0a18.4,18.4,0,0,1,9.4-1.5c.5.2-1.7,5.6-5.8,7.6S70.1,121.6,65.9,122.9Zm6.9-11.8c.2-.4,3.5-6.4,7.4-8.2a17.5,17.5,0,0,1,8.9-1.4c.3.1-1.8,5.4-6.2,7.6S72.6,111.6,72.8,111.1Zm8.9-11.9c-.3-.2,4.4-6.4,8.4-8.3a15.6,15.6,0,0,1,8.4-1c.3.3-1.9,5.5-6.5,7.5A24.2,24.2,0,0,1,81.7,99.2ZM92.4,87.4c-.2-.2,3.4-6.3,7.4-7.9s7.7-.1,8.9,0-1.3,4.5-6.6,6.4S93.1,87.7,92.4,87.4Zm12-11.4c.1-.3,4.1-5.9,8.1-7.3a16.4,16.4,0,0,1,9.2-.2c.5.2-2.8,5-7.7,6.5S104.3,76.3,104.4,76Zm12.1-9.9c-.5-.3,4.3-5.7,8.2-7.2a18,18,0,0,1,8.3-1c.3.2-2.5,4.9-7.1,6.7S117.1,66.5,116.5,66.1ZM50.2,175.3C28.6,158.1,15.6,132.1,15.6,105A89.3,89.3,0,0,1,146.4,25.8a.4.4,0,0,1,.1.7,97.3,97.3,0,0,0-10.2,11.4,73.1,73.1,0,0,0-31.3-7A74.3,74.3,0,0,0,30.9,105a72.1,72.1,0,0,0,17.9,48.2,23.1,23.1,0,0,0-1.9,9.4A25.6,25.6,0,0,0,50.2,175.3Zm.2-24.8h-.1A69.2,69.2,0,0,1,33.9,105,71.2,71.2,0,0,1,105,33.9a70.1,70.1,0,0,1,29.6,6.4,22.6,22.6,0,0,0-4.1,2.6A63.1,63.1,0,0,0,105,37.8,67.3,67.3,0,0,0,37.8,105c0,16.1,5,30.2,14.8,42C52.1,147.9,51.3,149.1,50.4,150.5Zm3.5-5.6c-1.3-1.2-4.1-4.3-4.4-8.3V136c0-4.3,1.9-8.6,2.4-9s5.3,3.3,5.4,8.7A14.4,14.4,0,0,1,53.9,144.9Zm8-7.2c3.9-1.8,9.6-1.4,9.3-1.1s-1.8,5.8-6.2,8a12.1,12.1,0,0,1-8.7,1.3C58.6,143.3,58.1,139.5,61.9,137.7Zm5.2,46.5c-.6-2.7-.4-6.3.5-7.3s4.9-1.2,5-.1-1.1,5.4.3,10.2C72.6,187.7,68.3,187.4,67.1,184.2Zm.3-11.1c-.3-2,1.6-3.9,1.6-8.2s-6.6-12.6-11.1-17.3a19.5,19.5,0,0,0,7.9-1.9c6.6-3.1,7.9-10.1,8.1-10.4a11,11,0,0,0-3.8-.4l.8-.4c6.4-3.5,8.1-11,7.8-11.1a17,17,0,0,0-4-.3l2-.7c6.8-2.7,8.7-10.3,8.5-10.6a16.1,16.1,0,0,0-3.5-.4l1.9-.8c6.2-3.1,8.4-10.1,8.1-10.3a10.5,10.5,0,0,0-3.3-.4,23.7,23.7,0,0,0,4.5-1.5c6.7-2.9,8.9-9.3,8.6-9.6a10.9,10.9,0,0,0-3-.5,34.5,34.5,0,0,0,4.4-1.3c6.6-2.2,9.2-8.5,8.8-8.6l-3.7-.8a24.5,24.5,0,0,0,6.6-1.3c7.1-2.4,9.6-6.7,9.8-8.6a6,6,0,0,0-2.3-.8,29.3,29.3,0,0,0,4.7-1.2c6.6-2.7,9.4-9.3,9.6-9.8a29.3,29.3,0,0,0,3.9-1.6l1.9-.9,1.6,1.1c1,.6,1.4.8.9,1.2C122,75,105,99.5,97.6,111.3c-.2.4-.6.3-1.3.3-7.9-.6-12.4,8.9-8.9,17.8-.4,1.8-4.2,5.3-4.5,5.5s-1,1.4.3,1.3,4.2-3.2,5.4-4.5c.4.6,2.2,2,1.3,2.8A63.6,63.6,0,0,1,76,145c-2.6,1.2,4.2,2.1,15.7-8.3.7-.6,1.5,2.4,2.5,3.7-2,6.5,2.9,19.1,2.1,23a2.8,2.8,0,0,1-2.8,2.7c-11.4.3-12.5-.3-18.3,1.4-2.7.8-2,2.6-.1,2.1s4.6-1.5,16.9-.7c3.1.1,6.5-.6,6.5-5.7s-3.6-18.4-2.4-20.3a6.9,6.9,0,0,0,3.5,1.4c-.2,4.5,7,19,3.8,27-1.2,3-6.4,2.7-15.4,1.8C72.7,171.6,67.7,174.9,67.4,173.1Zm35.1,9.9c-5.9,2-8.3-4.9-7.3-6.4s4.4,1,7.3-.9S106,181.8,102.5,183Zm-27,4.3c-.8-3.7-1.1-10,.4-11.5s4.9-.9,4.8.2c-.3,4.3-2.1,9.2,1.2,14.1C83.2,192,76.7,192.3,75.5,187.3Zm11.4,4.2c-1.6-.4-6-7.4-2.4-15.8.3-.8,5.8-.3,6.8,0s-.8,6.8,6.8,9.8C98.8,185.8,98,194.3,86.9,191.5Zm47.2-23.3c-2.5,8.8-3.8,12.3,0,21.9.5,1.3.9,2.3-.2,2.1-7.7-1.4-9.4-2.6-33.7-.6-1.7.2.6-3.4.3-5.8,2.2-.3,5.8-1.3,6.5-4.9s-2.1-7.6-1.8-8.2c3.5-6.7-.2-14.1-3.1-26.6-.3-1.2.4-1.7.9-1.1,15.6,16.9,25.5,20.2,30.9,21.8C134.4,167,134.3,167.6,134.1,168.2ZM174,122.1c-3.3,2.9-8.3,3.1-10.3,4.9s-1.5,2.5-.4,5.2,1.1,1.7-1.1,2.3-4.1,5.8-8.8,4.9c-1.8-.3-.5.8.2.9,2.6.3,3.7-.5,4.6-1.4s2.2-2.4,3.6-2.9,2.9-.5,3,.6-1.9,2.1-2.7,2.5c1,.5,3.9,1.9,1.4,3.6s-4.6-.5-4.9-.7-1.7-.2-1.3.3,5.2,1.3,4.5,2.2c-3.5,4.7-.6,7.5-1.7,12.3s-7.7,7.5-12.8,8.4c-17.4,3.1-34.3-11.6-44.2-22.8.9-2.1.8-4.8-.1-3.8s-.7,2.4-2.8,2.9c-3.9,1-5.7-5.9-6.9-7.1-4.8-4.7-6.7-11.4-3.9-17.3s9-4.7,11.4-1.1,1.7,7,3.4,8.3,4.8.2,5.4,0,1.7,4.3,8,4.1,5.9-10.7,6.9-11.6c8.6-8.4,4.2-15.9,2.6-17.6s1-3.6,1.5-3.7a13,13,0,0,0,9.4-7.7s8.4-.2,11.4-6.2c.8-1.6,3.3,1.5,8.9-2.9a.8.8,0,0,1,1.4.3c3.7,8.9,5.2,11.3,4.9,15.8s8.7,21.5,9.4,23.1S174.8,121.3,174,122.1Z"/><path class="minerva-base-style" d="M153.8,90c-4.9.2-10.6,6.2-12.4,7s-1.3,1.5-.2,1.1,5.9-4.7,10.7-6.4,3.6,1.8,5,1.6S156.6,89.9,153.8,90Z"/><path class="minerva-base-style" d="M154.9,94.8c-.4.1.4,2.2-1.7,2.3-4.6.3-8.3,4.7-11.1,6a12.9,12.9,0,0,1-3.8,1.4.3.3,0,0,0,.1.6c11.7,1.6,16.2,1.1,16.3.7s-.6-1.2-.4-1.7a11.3,11.3,0,0,0,.1-5.5c-.2-.8,1.8-.3,1.8-1.3S155.6,94.7,154.9,94.8Zm-1.8,9.3c-.2.9-5.5.5-8.3.2-.7,0-1.8-.1.3-1.4s4.1-2.8,7.2-3.4a.8.8,0,0,1,.8.6A10.6,10.6,0,0,1,153.1,104.1Z"/><path class="minerva-base-style" d="M168.4,120.8c-.9,0-4.5,1.6-5.9,2.5s-4.4,2.7-4.2-.8c.1-1.3.9-4.4.9-5.3s-1-.7-1.1,0a36.9,36.9,0,0,1-.7,5.3c-.4,1.8,1.2,4,3.6,2.7s4.8-2.9,7.3-3.4C168.9,121.7,169,120.8,168.4,120.8Z"/><path class="minerva-base-style" d="M100.5,133.6c-.7-.3-.5,1.2-1.4,1s-.2-1.3-1.8-3-2.8-1.2-4.3-3.6-.3-12,3.1-10.8,1.6,5,1,8,2.5,2.8,2.8,2.1-1.1-.9-1.4-1.9,3.5-7.6-1.8-9.4c-3.8-1.3-6.4,3.6-5.9,8.9a8,8,0,0,0,5.1,7.1c2.3.8.6,4,3.7,4C101,136,101.3,133.9,100.5,133.6Z"/><path class="minerva-base-style" d="M131.3,33.4c.2.1.3,0,.5-.1l6.5-8.3a.5.5,0,0,0-.2-.6L137,24a.4.4,0,0,0-.5.1L130,32.4c-.2.2-.1.5.2.6Z"/><path class="minerva-base-style" d="M119.2,30l1.1.3a.5.5,0,0,0,.5-.3l3.8-9.4a.4.4,0,0,0-.3-.6l-1.2-.2h-.3l-3.9,9.6A.4.4,0,0,0,119.2,30Z"/><path class="minerva-base-style" d="M105.8,28.7h1.1c.2.1.4-.1.4-.3l1-10a.5.5,0,0,0-.4-.5h-1.1c-.3,0-.4.2-.5.4l-.9,10A.4.4,0,0,0,105.8,28.7Z"/><path class="minerva-base-style" d="M92.8,29.7l1.1-.2c.2,0,.4-.2.3-.4l-1.9-9.9c0-.2-.2-.4-.4-.3H90.7c-.2.1-.4.3-.3.5l1.9,9.9C92.3,29.6,92.5,29.7,92.8,29.7Z"/><path class="minerva-base-style" d="M79.4,32.8l.5.2,1.1-.4a.4.4,0,0,0,.3-.6l-4.6-9a.4.4,0,0,0-.5-.2l-1,.3a.4.4,0,0,0-.3.6Z"/><path class="minerva-base-style" d="M67,38.5c.1.2.3.2.5.1l1-.6a.4.4,0,0,0,.1-.6l-6.7-7.7c-.2-.2-.4-.2-.5-.1l-1,.6c-.3.1-.3.4-.1.6Z"/><path class="minerva-base-style" d="M55.4,46.7c.2.1.4.1.5-.1l.9-.7a.5.5,0,0,0,0-.7l-8.5-5.9h-.5l-.9.8a.5.5,0,0,0,0,.7Z"/><path class="minerva-base-style" d="M45.4,57.1a.4.4,0,0,0,.4-.2l.8-.9c.2-.2.1-.5-.2-.6l-9.8-3.8c-.2-.1-.4-.1-.5.1l-.7.9a.4.4,0,0,0,.2.7Z"/><path class="minerva-base-style" d="M26.8,67.8l10.5,1.5c.2,0,.4-.1.4-.3l.6-1a.4.4,0,0,0-.3-.6L27.5,65.9l-.5.2a5.4,5.4,0,0,1-.5,1.1A.4.4,0,0,0,26.8,67.8Z"/><path class="minerva-base-style" d="M21.1,83.7l10.7-1a.3.3,0,0,0,.3-.3,7.6,7.6,0,0,0,.4-1.1.4.4,0,0,0-.4-.6l-10.8,1-.4.3-.3,1.2C20.6,83.5,20.8,83.8,21.1,83.7Z"/><path class="minerva-base-style" d="M29.2,96.5c0-.4.1-.9.1-1.3s-.2-.5-.5-.4L18.4,98.4c-.2.1-.3.2-.3.4s-.1.8-.1,1.2a.4.4,0,0,0,.6.4l10.3-3.6A.3.3,0,0,0,29.2,96.5Z"/><path class="minerva-base-style" d="M28.9,110.8v-1.3a.5.5,0,0,0-.7-.4l-9.4,6.3c-.2,0-.2.2-.2.4s.1.8.1,1.2a.5.5,0,0,0,.7.3l9.4-6.2C28.9,111,29,110.9,28.9,110.8Z"/><path class="minerva-base-style" d="M31.3,125l-.3-1.3a.4.4,0,0,0-.7-.2L22.6,132c-.1.1-.2.3-.1.4s.3.8.4,1.2a.4.4,0,0,0,.7.2l7.6-8.4C31.3,125.3,31.3,125.2,31.3,125Z"/><path class="minerva-base-style" d="M35.2,137.7,29.8,148c-.1.1,0,.3,0,.4l.7,1.2a.4.4,0,0,0,.7-.1l5.4-10.2c0-.1.1-.2,0-.4l-.6-1.2A.5.5,0,0,0,35.2,137.7Z"/><path class="minerva-base-style" d="M42.9,149.3c-.2-.3-.7-.2-.7.1l-2.9,12c-.1.2,0,.3,0,.4l1,1a.4.4,0,0,0,.7-.1l2.8-11.9c.1-.1,0-.2,0-.3Z"/></g><g transform="translate(366.666 41.434619)"><g transform="translate(0 99.060381)" style="fill: #656767;"><path d="M5.500-62L22.094-62L37.922-17.029L53.656-62L70.328-62L70.328 0L57.594 0L57.594-16.951L58.859-46.213L42.234 0L33.516 0L16.922-46.166L18.203-16.951L18.203 0L5.500 0L5.500-62ZM129.563 0L125.281-12.719L103.031-12.719L98.797 0L85.297 0L108.234-62L120-62L143.063 0L129.563 0ZM114.109-46.339L106.453-23L121.859-23L114.109-46.339ZM168-62L179.547-40.631L191.109-62L205.703-62L187.766-31.259L206.172 0L191.391 0L179.547-21.715L167.703 0L152.938 0L171.344-31.259L153.391-62L168-62ZM275.328-21.703L264.203-21.703L264.203 0L251.500 0L251.500-62L275.531-62Q282.484-62 287.750-59.436Q293.016-56.872 295.852-52.155Q298.688-47.437 298.688-41.410L298.688-41.410Q298.688-32.259 292.484-26.981Q286.281-21.703 275.328-21.703L275.328-21.703ZM264.203-51.719L264.203-32L275.531-32Q280.578-32 283.219-34.415Q285.859-36.830 285.859-41.325L285.859-41.325Q285.859-45.932 283.195-48.786Q280.531-51.639 275.828-51.719L275.828-51.719L264.203-51.719ZM329.203-62L329.203-10.203L356.156-10.203L356.156 0L316.500 0L316.500-62L329.203-62ZM411.563 0L407.281-12.719L385.031-12.719L380.797 0L367.297 0L390.234-62L402-62L425.063 0L411.563 0ZM396.109-46.339L388.453-23L403.859-23L396.109-46.339ZM489.609-62L489.609 0L476.906 0L452.203-40.804L452.203 0L439.500 0L439.500-62L452.203-62L476.953-21.117L476.953-62L489.609-62ZM545.172-20.375L557.875-20.375Q557.156-10.422 550.531-4.711Q543.906 1 533.078 1L533.078 1Q521.219 1 514.430-6.937Q507.641-14.874 507.641-28.728L507.641-28.728L507.641-32.475Q507.641-41.321 510.773-48.054Q513.906-54.786 519.727-58.393Q525.547-62 533.234-62L533.234-62Q543.906-62 550.422-56.281Q556.938-50.563 557.953-40.234L557.953-40.234L545.266-40.234Q544.797-46.203 541.938-48.891Q539.078-51.578 533.234-51.578L533.234-51.578Q526.891-51.578 523.742-47.065Q520.594-42.551 520.500-33.059L520.500-33.059L520.500-28.437Q520.500-18.526 523.531-13.943Q526.563-9.359 533.078-9.359L533.078-9.359Q538.953-9.359 541.852-12.047Q544.750-14.734 545.172-20.375L545.172-20.375ZM609.625 0L593.797-24.875L587.203-17.721L587.203 0L574.500 0L574.500-62L587.203-62L587.203-33.901L592.781-41.606L608.484-62L624.094-62L602.219-34.451L624.734 0L609.625 0ZM682-62L682 0L669.313 0L669.313-62L682-62ZM752.609-62L752.609 0L739.906 0L715.203-40.804L715.203 0L702.500 0L702.500-62L715.203-62L739.953-21.117L739.953-62L752.609-62ZM804.453-15.963L804.453-15.963Q804.453-19.529 801.914-21.436Q799.375-23.344 792.773-25.468Q786.172-27.593 782.313-29.660L782.313-29.660Q771.828-35.289 771.828-44.851L771.828-44.851Q771.828-49.826 774.641-53.721Q777.453-57.615 782.719-59.808Q787.984-62 794.547-62L794.547-62Q801.156-62 806.313-59.613Q811.469-57.227 814.328-52.897Q817.188-48.567 817.188-43.047L817.188-43.047L804.500-43.047Q804.500-47.237 801.828-49.556Q799.156-51.875 794.344-51.875L794.344-51.875Q789.688-51.875 787.102-49.930Q784.516-47.985 784.516-44.820L784.516-44.820Q784.516-41.841 787.547-39.834Q790.578-37.827 796.453-36.052L796.453-36.052Q807.281-32.814 812.234-28.003Q817.188-23.193 817.188-16.032L817.188-16.032Q817.188-8.061 811.141-3.530Q805.094 1 794.844 1L794.844 1Q787.734 1 781.898-1.589Q776.063-4.177 772.992-8.686Q769.922-13.195 769.922-19.119L769.922-19.119L782.656-19.119Q782.656-9.031 794.844-9.031L794.844-9.031Q799.375-9.031 801.914-10.853Q804.453-12.675 804.453-15.963ZM880.875-62L880.875-51.719L862.016-51.719L862.016 0L849.313 0L849.313-51.719L830.688-51.719L830.688-62L880.875-62ZM910-62L910 0L897.313 0L897.313-62L910-62ZM975.875-62L975.875-51.719L957.016-51.719L957.016 0L944.313 0L944.313-51.719L925.688-51.719L925.688-62L975.875-62ZM1025.391-62L1038.141-62L1038.141-21.067Q1038.141-10.869 1031.813-4.934Q1025.484 1 1014.516 1L1014.516 1Q1003.734 1 997.383-4.761Q991.031-10.522 990.906-20.594L990.906-20.594L990.906-62L1003.609-62L1003.609-20.918Q1003.609-14.792 1006.508-11.998Q1009.406-9.203 1014.516-9.203L1014.516-9.203Q1025.234-9.203 1025.391-20.571L1025.391-20.571L1025.391-62ZM1103.875-62L1103.875-51.719L1085.016-51.719L1085.016 0L1072.313 0L1072.313-51.719L1053.688-51.719L1053.688-62L1103.875-62ZM1156.578-37L1156.578-27.063L1132.203-27.063L1132.203-10.203L1160.797-10.203L1160.797 0L1119.500 0L1119.500-62L1160.719-62L1160.719-51.719L1132.203-51.719L1132.203-37L1156.578-37Z"/></g><g transform="translate(0 179.070381)" style="fill: #656767;"><path d="M33.219-27L33.219-21.641L12.344-21.641L12.344 0L5.781 0L5.781-50L36.609-50L36.609-44.594L12.344-44.594L12.344-27L33.219-27ZM85.063-26.035L85.063-22.903Q85.063-15.610 82.602-10.172Q80.141-4.734 75.625-1.867Q71.109 1 65.094 1L65.094 1Q59.219 1 54.672-1.883Q50.125-4.765 47.617-10.102Q45.109-15.439 45.031-22.451L45.031-22.451L45.031-26.035Q45.031-33.187 47.531-38.680Q50.031-44.172 54.594-47.086Q59.156-50 65.031-50L65.031-50Q71.016-50 75.578-47.117Q80.141-44.235 82.602-38.765Q85.063-33.296 85.063-26.035L85.063-26.035ZM78.531-22.421L78.531-26.096Q78.531-34.924 74.977-39.642Q71.422-44.359 65.031-44.359L65.031-44.359Q58.813-44.359 55.242-39.642Q51.672-34.924 51.563-26.547L51.563-26.547L51.563-22.904Q51.563-14.356 55.172-9.467Q58.781-4.578 65.094-4.578L65.094-4.578Q71.453-4.578 74.938-9.195Q78.422-13.811 78.531-22.421L78.531-22.421ZM126.828 0L116.031-20.625L104.344-20.625L104.344 0L97.750 0L97.750-50L114.219-50Q122.625-50 127.156-46.206Q131.688-42.412 131.688-35.165L131.688-35.165Q131.688-30.551 129.172-27.136Q126.656-23.722 122.188-22.019L122.188-22.019L133.875-0.415L133.875 0L126.828 0ZM104.344-44.594L104.344-26L114.422-26Q119.313-26 122.203-28.496Q125.094-30.991 125.094-35.166L125.094-35.166Q125.094-39.710 122.336-42.137Q119.578-44.563 114.391-44.594L114.391-44.594L104.344-44.594ZM177.547 0L163.781 0L163.781-50L177.828-50Q184.313-50 189.305-47.119Q194.297-44.239 197.016-38.909Q199.734-33.579 199.766-26.688L199.766-26.688L199.766-23.485Q199.766-16.421 197.047-11.099Q194.328-5.777 189.289-2.920Q184.250-0.063 177.547 0L177.547 0ZM178-44.594L170.344-44.594L170.344-5.359L177.250-5.359Q184.828-5.359 189.055-10.106Q193.281-14.854 193.281-23.625L193.281-23.625L193.281-26.548Q193.281-35.068 189.297-39.799Q185.313-44.531 178-44.594L178-44.594ZM214.031-50L226.953-24.898L239.938-50L247.391-50L230.234-18.650L230.234 0L223.672 0L223.672-18.650L206.516-50L214.031-50ZM295.031-50L295.031 0L288.422 0L263.375-38.524L263.375 0L256.781 0L256.781-50L263.375-50L288.500-11.303L288.500-50L295.031-50ZM342.016 0L337.250-12.594L316.406-12.594L311.719 0L304.953 0L323.969-50L329.703-50L348.734 0L342.016 0ZM326.828-41.868L318.391-18L335.313-18L326.828-41.868ZM357.781-50L366.250-50L382.516-9.199L398.797-50L407.297-50L407.297 0L400.734 0L400.734-19.466L401.359-40.487L385.016 0L380 0L363.688-40.392L364.344-19.466L364.344 0L357.781 0L357.781-50ZM428.813-50L428.813 0L422.250 0L422.250-50L428.813-50ZM473.781-15.484L480.391-15.484Q479.453-7.578 474.555-3.289Q469.656 1 461.516 1L461.516 1Q452.703 1 447.383-5.311Q442.063-11.621 442.063-22.186L442.063-22.186L442.063-26.954Q442.063-33.873 444.547-39.124Q447.031-44.375 451.570-47.187Q456.109-50 462.094-50L462.094-50Q470.031-50 474.813-45.570Q479.594-41.141 480.391-33.313L480.391-33.313L473.781-33.313Q472.938-39.266 470.078-41.930Q467.219-44.594 462.094-44.594L462.094-44.594Q455.813-44.594 452.242-39.962Q448.672-35.329 448.672-26.781L448.672-26.781L448.672-21.985Q448.672-13.904 452.055-9.140Q455.438-4.375 461.516-4.375L461.516-4.375Q466.984-4.375 469.906-6.852Q472.828-9.328 473.781-15.484L473.781-15.484ZM506.438-21.812L506.438-21.812Q498-24.227 494.156-27.757Q490.313-31.286 490.313-36.459L490.313-36.459Q490.313-42.334 495.008-46.167Q499.703-50 507.219-50L507.219-50Q512.359-50 516.375-48.016Q520.391-46.031 522.594-42.547Q524.797-39.063 524.797-34.922L524.797-34.922L518.203-34.922Q518.203-39.438 515.328-42.016Q512.453-44.594 507.219-44.594L507.219-44.594Q502.375-44.594 499.656-42.470Q496.938-40.347 496.938-36.567L496.938-36.567Q496.938-33.533 499.516-31.441Q502.094-29.349 508.297-27.614Q514.500-25.880 518.008-23.783Q521.516-21.686 523.203-18.887Q524.891-16.088 524.891-12.300L524.891-12.300Q524.891-6.266 520.180-2.633Q515.469 1 507.563 1L507.563 1Q502.438 1 497.992-0.969Q493.547-2.938 491.141-6.352Q488.734-9.766 488.734-14.109L488.734-14.109L495.328-14.109Q495.328-9.594 498.664-6.984Q502-4.375 507.563-4.375L507.563-4.375Q512.766-4.375 515.531-6.484Q518.297-8.594 518.297-12.236Q518.297-15.879 515.734-17.872Q513.172-19.864 506.438-21.812ZM589.016 0L584.250-12.594L563.406-12.594L558.719 0L551.953 0L570.969-50L576.703-50L595.734 0L589.016 0ZM573.828-41.868L565.391-18L582.313-18L573.828-41.868ZM643.031-50L643.031 0L636.422 0L611.375-38.524L611.375 0L604.781 0L604.781-50L611.375-50L636.500-11.303L636.500-50L643.031-50ZM671.547 0L657.781 0L657.781-50L671.828-50Q678.313-50 683.305-47.119Q688.297-44.239 691.016-38.909Q693.734-33.579 693.766-26.688L693.766-26.688L693.766-23.485Q693.766-16.421 691.047-11.099Q688.328-5.777 683.289-2.920Q678.250-0.063 671.547 0L671.547 0ZM672-44.594L664.344-44.594L664.344-5.359L671.250-5.359Q678.828-5.359 683.055-10.106Q687.281-14.854 687.281-23.625L687.281-23.625L687.281-26.548Q687.281-35.068 683.297-39.799Q679.313-44.531 672-44.594L672-44.594ZM741.438-21.812L741.438-21.812Q733-24.227 729.156-27.757Q725.313-31.286 725.313-36.459L725.313-36.459Q725.313-42.334 730.008-46.167Q734.703-50 742.219-50L742.219-50Q747.359-50 751.375-48.016Q755.391-46.031 757.594-42.547Q759.797-39.063 759.797-34.922L759.797-34.922L753.203-34.922Q753.203-39.438 750.328-42.016Q747.453-44.594 742.219-44.594L742.219-44.594Q737.375-44.594 734.656-42.470Q731.938-40.347 731.938-36.567L731.938-36.567Q731.938-33.533 734.516-31.441Q737.094-29.349 743.297-27.614Q749.500-25.880 753.008-23.783Q756.516-21.686 758.203-18.887Q759.891-16.088 759.891-12.300L759.891-12.300Q759.891-6.266 755.180-2.633Q750.469 1 742.563 1L742.563 1Q737.438 1 732.992-0.969Q728.547-2.938 726.141-6.352Q723.734-9.766 723.734-14.109L723.734-14.109L730.328-14.109Q730.328-9.594 733.664-6.984Q737-4.375 742.563-4.375L742.563-4.375Q747.766-4.375 750.531-6.484Q753.297-8.594 753.297-12.236Q753.297-15.879 750.734-17.872Q748.172-19.864 741.438-21.812ZM798.906-29L798.906-23.625L777.344-23.625L777.344-5.359L802.391-5.359L802.391 0L770.781 0L770.781-50L802.047-50L802.047-44.594L777.344-44.594L777.344-29L798.906-29ZM820.375-50L820.375-5.359L843.953-5.359L843.953 0L813.781 0L813.781-50L820.375-50ZM881.219-27L881.219-21.641L860.344-21.641L860.344 0L853.781 0L853.781-50L884.609-50L884.609-44.594L860.344-44.594L860.344-27L881.219-27ZM907.938-24L907.938-18.844L891.266-18.844L891.266-24L907.938-24ZM956.063-26.035L956.063-22.903Q956.063-15.610 953.602-10.172Q951.141-4.734 946.625-1.867Q942.109 1 936.094 1L936.094 1Q930.219 1 925.672-1.883Q921.125-4.765 918.617-10.102Q916.109-15.439 916.031-22.451L916.031-22.451L916.031-26.035Q916.031-33.187 918.531-38.680Q921.031-44.172 925.594-47.086Q930.156-50 936.031-50L936.031-50Q942.016-50 946.578-47.117Q951.141-44.235 953.602-38.765Q956.063-33.296 956.063-26.035L956.063-26.035ZM949.531-22.421L949.531-26.096Q949.531-34.924 945.977-39.642Q942.422-44.359 936.031-44.359L936.031-44.359Q929.813-44.359 926.242-39.642Q922.672-34.924 922.563-26.547L922.563-26.547L922.563-22.904Q922.563-14.356 926.172-9.467Q929.781-4.578 936.094-4.578L936.094-4.578Q942.453-4.578 945.938-9.195Q949.422-13.811 949.531-22.421L949.531-22.421ZM997.828 0L987.031-20.625L975.344-20.625L975.344 0L968.750 0L968.750-50L985.219-50Q993.625-50 998.156-46.206Q1002.688-42.412 1002.688-35.165L1002.688-35.165Q1002.688-30.551 1000.172-27.136Q997.656-23.722 993.188-22.019L993.188-22.019L1004.875-0.415L1004.875 0L997.828 0ZM975.344-44.594L975.344-26L985.422-26Q990.313-26 993.203-28.496Q996.094-30.991 996.094-35.166L996.094-35.166Q996.094-39.710 993.336-42.137Q990.578-44.563 985.391-44.594L985.391-44.594L975.344-44.594ZM1051.516-24L1051.516-6.086Q1048.984-2.528 1044.461-0.764Q1039.938 1 1033.922 1L1033.922 1Q1027.828 1 1023.117-1.852Q1018.406-4.703 1015.820-9.946Q1013.234-15.190 1013.172-22.108L1013.172-22.108L1013.172-26.440Q1013.172-37.659 1018.414-43.830Q1023.656-50 1033.172-50L1033.172-50Q1040.953-50 1045.703-46.016Q1050.453-42.031 1051.516-34.719L1051.516-34.719L1044.953-34.719Q1043.109-44.594 1033.203-44.594L1033.203-44.594Q1026.609-44.594 1023.203-39.977Q1019.797-35.360 1019.766-26.610L1019.766-26.610L1019.766-22.561Q1019.766-14.216 1023.594-9.295Q1027.422-4.375 1033.953-4.375L1033.953-4.375Q1037.641-4.375 1040.414-5.169Q1043.188-5.964 1044.984-7.840L1044.984-7.840L1044.984-18.672L1033.469-18.672L1033.469-24L1051.516-24ZM1097.016 0L1092.250-12.594L1071.406-12.594L1066.719 0L1059.953 0L1078.969-50L1084.703-50L1103.734 0L1097.016 0ZM1081.828-41.868L1073.391-18L1090.313-18L1081.828-41.868ZM1152.031-50L1152.031 0L1145.422 0L1120.375-38.524L1120.375 0L1113.781 0L1113.781-50L1120.375-50L1145.500-11.303L1145.500-50L1152.031-50ZM1172.813-50L1172.813 0L1166.250 0L1166.250-50L1172.813-50ZM1220.078-45.188L1192.703-5.359L1221.172-5.359L1221.172 0L1184.938 0L1184.938-4.922L1212.219-44.594L1185.391-44.594L1185.391-50L1220.078-50L1220.078-45.188ZM1265.016 0L1260.250-12.594L1239.406-12.594L1234.719 0L1227.953 0L1246.969-50L1252.703-50L1271.734 0L1265.016 0ZM1249.828-41.868L1241.391-18L1258.313-18L1249.828-41.868ZM1311.156-50L1311.156-44.594L1295.172-44.594L1295.172 0L1288.641 0L1288.641-44.594L1272.672-44.594L1272.672-50L1311.156-50ZM1328.813-50L1328.813 0L1322.250 0L1322.250-50L1328.813-50ZM1382.063-26.035L1382.063-22.903Q1382.063-15.610 1379.602-10.172Q1377.141-4.734 1372.625-1.867Q1368.109 1 1362.094 1L1362.094 1Q1356.219 1 1351.672-1.883Q1347.125-4.765 1344.617-10.102Q1342.109-15.439 1342.031-22.451L1342.031-22.451L1342.031-26.035Q1342.031-33.187 1344.531-38.680Q1347.031-44.172 1351.594-47.086Q1356.156-50 1362.031-50L1362.031-50Q1368.016-50 1372.578-47.117Q1377.141-44.235 1379.602-38.765Q1382.063-33.296 1382.063-26.035L1382.063-26.035ZM1375.531-22.421L1375.531-26.096Q1375.531-34.924 1371.977-39.642Q1368.422-44.359 1362.031-44.359L1362.031-44.359Q1355.813-44.359 1352.242-39.642Q1348.672-34.924 1348.563-26.547L1348.563-26.547L1348.563-22.904Q1348.563-14.356 1352.172-9.467Q1355.781-4.578 1362.094-4.578L1362.094-4.578Q1368.453-4.578 1371.938-9.195Q1375.422-13.811 1375.531-22.421L1375.531-22.421ZM1433.031-50L1433.031 0L1426.422 0L1401.375-38.524L1401.375 0L1394.781 0L1394.781-50L1401.375-50L1426.500-11.303L1426.500-50L1433.031-50Z"/></g></g></svg>